<?xml version="1.0" encoding="UTF-8" standalone="no"?>
<svg
   xmlns:dc="http://purl.org/dc/elements/1.1/"
   xmlns:cc="http://creativecommons.org/ns#"
   xmlns:rdf="http://www.w3.org/1999/02/22-rdf-syntax-ns#"
   xmlns:svg="http://www.w3.org/2000/svg"
   xmlns="http://www.w3.org/2000/svg"
   xmlns:xlink="http://www.w3.org/1999/xlink"
   id="svg6833"
   version="1.1"
   viewBox="0 0 23.205 23.205"
   height="23.205mm"
   width="23.205mm">
  <defs
     id="defs6827">
    <linearGradient
       id="linearGradient1058">
      <stop
         id="stop1054"
         offset="0"
         style="stop-color:#00bfbc;stop-opacity:1" />
      <stop
         id="stop1056"
         offset="1"
         style="stop-color:#00f4ff;stop-opacity:1" />
    </linearGradient>
    <linearGradient
       id="linearGradient983">
      <stop
         style="stop-color:#bfa700;stop-opacity:1"
         offset="0"
         id="stop979" />
      <stop
         style="stop-color:#ffde00;stop-opacity:1"
         offset="1"
         id="stop981" />
    </linearGradient>
    <linearGradient
       gradientTransform="matrix(0.35500957,0,0,0.35576333,-43.973204,308.43702)"
       gradientUnits="userSpaceOnUse"
       y2="72.921043"
       x2="-226.99358"
       y1="25.0436"
       x1="-226.22386"
       id="linearGradient855"
       xlink:href="#linearGradient983" />
    <linearGradient
       gradientTransform="matrix(0.35500957,0,0,0.35576333,-43.973204,308.43702)"
       gradientUnits="userSpaceOnUse"
       y2="54.953579"
       x2="-305.69336"
       y1="42.579205"
       x1="-306.45346"
       id="linearGradient857"
       xlink:href="#linearGradient983" />
    <linearGradient
       gradientTransform="matrix(0.35500958,0,0,0.35576333,-115.48263,308.43701)"
       gradientUnits="userSpaceOnUse"
       y2="72.921043"
       x2="-226.99358"
       y1="25.0436"
       x1="-226.22386"
       id="linearGradient855-2"
       xlink:href="#linearGradient1058" />
    <linearGradient
       gradientTransform="matrix(0.26650739,0,0,0.26636673,114.68676,305.91444)"
       gradientUnits="userSpaceOnUse"
       y2="160.97697"
       x2="-182.21553"
       y1="168.04803"
       x1="-177.3351"
       id="linearGradient853"
       xlink:href="#linearGradient983" />
    <linearGradient
       gradientTransform="matrix(0.26650739,0,0,0.26636673,114.68676,305.91444)"
       gradientUnits="userSpaceOnUse"
       y2="72.921043"
       x2="-226.99358"
       y1="25.0436"
       x1="-226.22386"
       id="linearGradient855-0"
       xlink:href="#linearGradient983" />
    <linearGradient
       gradientTransform="matrix(0.26650739,0,0,0.26636673,114.68676,305.91444)"
       gradientUnits="userSpaceOnUse"
       y2="54.953579"
       x2="-305.69336"
       y1="42.579205"
       x1="-306.45346"
       id="linearGradient857-6"
       xlink:href="#linearGradient983" />
  </defs>
  <metadata
     id="metadata6830">
    <rdf:RDF>
      <cc:Work
         rdf:about="">
        <dc:format>image/svg+xml</dc:format>
        <dc:type
           rdf:resource="http://purl.org/dc/dcmitype/StillImage" />
        <dc:title></dc:title>
      </cc:Work>
    </rdf:RDF>
  </metadata>
  <g
     transform="translate(0,-273.795)"
     id="layer1">
    <g
       transform="matrix(0.47626147,0,0,0.47525241,1.7050197,109.01917)"
       id="g18">
      <g
         transform="translate(-31.227106,35.224033)"
         id="g988">
        <path
           style="opacity:1;fill:url(#linearGradient857-6);fill-opacity:1;fill-rule:nonzero;stroke:none;stroke-width:0.11394767;stroke-linecap:round;stroke-linejoin:round;stroke-miterlimit:4;stroke-dasharray:none;stroke-dashoffset:0;stroke-opacity:1;paint-order:normal"
           d="m 30.545044,327.92816 c 0,-0.004 -0.04947,-0.27768 -0.109856,-0.60774 -0.331746,-1.81221 -0.485641,-2.9685 -0.564862,-4.24423 -0.02524,-0.4061 -0.02524,-1.47993 -1.9e-5,-1.83304 0.125351,-1.75564 0.546351,-3.02661 1.32026,-3.98561 0.132406,-0.16413 0.437739,-0.4687 0.607179,-0.60579 0.347305,-0.28094 0.808365,-0.5456 1.245936,-0.71519 0.185801,-0.072 0.210363,-0.0774 0.307835,-0.0686 0.425272,0.0383 0.896776,0.39091 1.212613,0.90666 0.881892,1.44009 1.210262,4.47915 1.027053,9.5053 -0.01092,0.29599 -0.02058,0.53908 -0.0216,0.54022 -0.0017,0.002 -0.05503,-0.006 -0.119787,-0.0147 -0.206168,-0.0305 -1.062401,-0.024 -1.302167,0.008 -0.856321,0.1212 -1.831509,0.41329 -3.181914,0.95349 -0.409617,0.16391 -0.420653,0.16812 -0.420653,0.15992 z"
           id="path833" />
        <path
           style="opacity:1;fill:url(#linearGradient855-0);fill-opacity:1;fill-rule:nonzero;stroke:none;stroke-width:0.91158134;stroke-linecap:round;stroke-linejoin:round;stroke-miterlimit:4;stroke-dasharray:none;stroke-dashoffset:0;stroke-opacity:1;paint-order:normal"
           d="m 33.49156,355.5393 c 0.121865,-3.12076 0.347893,-5.89727 1.160051,-14.25024 1.169726,-12.0307 1.356067,-15.05625 1.193162,-19.37311 -0.123062,-3.26109 -0.559657,-5.01014 -1.460571,-5.85129 l -0.408484,-0.38138 1.180043,-0.27686 c 7.191136,-1.6874 20.407292,-1.98322 30.561502,-0.68406 2.156944,0.27598 6.078619,1.01878 6.246599,1.18318 0.170011,0.16644 0.90949,2.60767 1.247111,4.11714 0.18326,0.81931 0.422894,2.21615 0.532546,3.1041 0.594885,4.81769 0.412819,7.78769 -1.14484,18.67481 -0.563203,3.93648 -0.264294,4.45744 -0.51996,4.394 -0.14807,-0.0366 -1.035513,-0.51661 -1.55375,-0.68042 -1.308588,-0.41359 -4.600951,-0.45051 -6.158249,-0.069 -0.573763,0.14056 -1.043211,0.27381 -1.043211,0.29616 0,0.0223 0.09088,0.38926 0.201927,0.81537 0.259173,0.99453 0.257957,2.81485 -0.0029,4.18873 -0.314011,1.65446 -1.182781,4.35036 -2.13914,6.63805 l -0.200353,0.47924 -1.117167,-0.23981 c -3.799058,-0.81559 -9.835618,-0.85035 -20.769723,-0.11952 -2.146968,0.14351 -4.352421,0.3002 -4.901002,0.34824 l -0.99742,0.0875 z"
           id="path837" />
        <path
           style="fill:none;stroke:#000000;stroke-width:0.55018717px;stroke-linecap:butt;stroke-linejoin:miter;stroke-opacity:1"
           d="m 33.250568,315.73599 c 5.645676,0.41548 8.33e-4,28.24556 0,42.36791 10.94461,-0.775 22.260781,-1.73024 28.040883,0 l 10.85939,-11.82736 c 1.168196,-9.99804 4.01667,-19.73406 1.2e-5,-30.54055 -9.822745,-2.64022 -30.386539,-2.75416 -38.900285,0 z"
           id="path821" />
        <path
           style="fill:none;stroke:#000000;stroke-width:0.55018717px;stroke-linecap:butt;stroke-linejoin:miter;stroke-opacity:1"
           d="m 33.250568,315.73599 c -4.880256,1.61276 -3.490272,8.61731 -2.790954,12.36379 2.782045,-1.14977 3.894012,-1.32785 5.177792,-1.15225"
           id="path825" />
        <path
           style="opacity:1;fill:url(#linearGradient853);fill-opacity:1;fill-rule:nonzero;stroke:none;stroke-width:0.16114633;stroke-linecap:round;stroke-linejoin:round;stroke-miterlimit:4;stroke-dasharray:none;stroke-dashoffset:0;stroke-opacity:1;paint-order:normal"
           d="m 61.704879,357.44484 c 0,-0.0126 0.08151,-0.22702 0.18114,-0.4752 1.314243,-3.27391 1.963453,-5.58436 2.141597,-7.62177 0.04737,-0.542 0.03408,-1.5971 -0.02545,-2.01865 -0.05201,-0.36837 -0.143661,-0.79269 -0.239192,-1.10768 -0.04378,-0.14435 -0.07712,-0.26473 -0.0741,-0.26771 0.0029,-0.004 0.157665,-0.0492 0.343725,-0.10248 0.653248,-0.18726 1.374938,-0.33203 2.0982,-0.42068 0.498903,-0.061 1.961939,-0.061 2.439021,2.5e-4 0.732141,0.0941 1.289267,0.20642 1.927423,0.38866 0.569032,0.16244 1.415813,0.46775 1.415813,0.51042 0,0.0168 -9.810318,10.72479 -10.140031,11.06777 -0.03746,0.0391 -0.06818,0.0602 -0.06818,0.0469 z"
           id="path835" />
        <path
           style="fill:none;stroke:#000000;stroke-width:0.55070168;stroke-linecap:butt;stroke-linejoin:round;stroke-miterlimit:4;stroke-dasharray:none;stroke-opacity:1"
           d="m 61.291451,358.1039 c 1.743101,-4.19739 3.491895,-8.97021 2.224528,-12.2246 3.320449,-1.07411 6.101642,-0.67676 8.634862,0.39724 z"
           id="path823" />
      </g>
    </g>
  </g>
</svg>
