<?xml version="1.0" encoding="UTF-8" standalone="no"?>
<!-- Created with Inkscape (http://www.inkscape.org/) -->

<svg
   xmlns:dc="http://purl.org/dc/elements/1.1/"
   xmlns:cc="http://creativecommons.org/ns#"
   xmlns:rdf="http://www.w3.org/1999/02/22-rdf-syntax-ns#"
   xmlns:svg="http://www.w3.org/2000/svg"
   xmlns="http://www.w3.org/2000/svg"
   xmlns:xlink="http://www.w3.org/1999/xlink"
   xmlns:sodipodi="http://sodipodi.sourceforge.net/DTD/sodipodi-0.dtd"
   xmlns:inkscape="http://www.inkscape.org/namespaces/inkscape"
   width="23.205mm"
   height="23.205mm"
   viewBox="0 0 23.205 23.205"
   version="1.1"
   id="svg6833"
   inkscape:version="0.92.4 (5da689c313, 2019-01-14)"
   sodipodi:docname="post_it_note.svg">
  <defs
     id="defs6827">
    <linearGradient
       inkscape:collect="always"
       id="linearGradient1058">
      <stop
         style="stop-color:#00bfbc;stop-opacity:1"
         offset="0"
         id="stop1054" />
      <stop
         style="stop-color:#00f4ff;stop-opacity:1"
         offset="1"
         id="stop1056" />
    </linearGradient>
    <linearGradient
       id="linearGradient983"
       inkscape:collect="always">
      <stop
         id="stop979"
         offset="0"
         style="stop-color:#bfa700;stop-opacity:1" />
      <stop
         id="stop981"
         offset="1"
         style="stop-color:#ffde00;stop-opacity:1" />
    </linearGradient>
    <linearGradient
       inkscape:collect="always"
       xlink:href="#linearGradient983"
       id="linearGradient855"
       x1="-226.22386"
       y1="25.0436"
       x2="-226.99358"
       y2="72.921043"
       gradientUnits="userSpaceOnUse"
       gradientTransform="matrix(0.35500957,0,0,0.35576333,-43.973204,308.43702)" />
    <linearGradient
       inkscape:collect="always"
       xlink:href="#linearGradient983"
       id="linearGradient857"
       x1="-306.45346"
       y1="42.579205"
       x2="-305.69336"
       y2="54.953579"
       gradientUnits="userSpaceOnUse"
       gradientTransform="matrix(0.35500957,0,0,0.35576333,-43.973204,308.43702)" />
    <linearGradient
       inkscape:collect="always"
       xlink:href="#linearGradient1058"
       id="linearGradient855-2"
       x1="-226.22386"
       y1="25.0436"
       x2="-226.99358"
       y2="72.921043"
       gradientUnits="userSpaceOnUse"
       gradientTransform="matrix(0.35500958,0,0,0.35576333,-115.48263,308.43701)" />
    <linearGradient
       inkscape:collect="always"
       xlink:href="#linearGradient6992"
       id="linearGradient853-4"
       x1="-177.3351"
       y1="168.04803"
       x2="-182.21553"
       y2="160.97697"
       gradientUnits="userSpaceOnUse"
       gradientTransform="matrix(0.26650739,0,0,0.26636673,-49.349935,410.516)" />
    <linearGradient
       inkscape:collect="always"
       id="linearGradient6992">
      <stop
         style="stop-color:#924ba8;stop-opacity:1"
         offset="0"
         id="stop6988" />
      <stop
         style="stop-color:#cc64ff;stop-opacity:1"
         offset="1"
         id="stop6990" />
    </linearGradient>
    <linearGradient
       inkscape:collect="always"
       xlink:href="#linearGradient6992"
       id="linearGradient855-4"
       x1="-226.22386"
       y1="25.0436"
       x2="-226.99358"
       y2="72.921043"
       gradientUnits="userSpaceOnUse"
       gradientTransform="matrix(0.26650739,0,0,0.26636673,-49.349935,410.516)" />
    <linearGradient
       inkscape:collect="always"
       xlink:href="#linearGradient6992"
       id="linearGradient857-8"
       x1="-306.45346"
       y1="42.579205"
       x2="-305.69336"
       y2="54.953579"
       gradientUnits="userSpaceOnUse"
       gradientTransform="matrix(0.26650739,0,0,0.26636673,-49.349935,410.516)" />
  </defs>
  <sodipodi:namedview
     id="base"
     pagecolor="#ffffff"
     bordercolor="#666666"
     borderopacity="1.0"
     inkscape:pageopacity="0.0"
     inkscape:pageshadow="2"
     inkscape:zoom="5.6"
     inkscape:cx="36.125132"
     inkscape:cy="49.582196"
     inkscape:document-units="mm"
     inkscape:current-layer="g18"
     showgrid="false"
     inkscape:window-width="1920"
     inkscape:window-height="1017"
     inkscape:window-x="1912"
     inkscape:window-y="-8"
     inkscape:window-maximized="1"
     inkscape:snap-global="true"
     inkscape:snap-bbox="true"
     inkscape:bbox-paths="true"
     inkscape:bbox-nodes="true"
     inkscape:snap-bbox-edge-midpoints="true"
     inkscape:snap-bbox-midpoints="true"
     inkscape:object-paths="true"
     inkscape:snap-intersection-paths="true"
     inkscape:snap-smooth-nodes="true"
     inkscape:snap-midpoints="true"
     inkscape:snap-object-midpoints="true"
     inkscape:snap-center="true"
     inkscape:snap-text-baseline="true"
     inkscape:snap-page="true" />
  <metadata
     id="metadata6830">
    <rdf:RDF>
      <cc:Work
         rdf:about="">
        <dc:format>image/svg+xml</dc:format>
        <dc:type
           rdf:resource="http://purl.org/dc/dcmitype/StillImage" />
        <dc:title></dc:title>
      </cc:Work>
    </rdf:RDF>
  </metadata>
  <g
     inkscape:label="Layer 1"
     inkscape:groupmode="layer"
     id="layer1"
     transform="translate(0,-273.795)">
    <g
       id="g18"
       transform="matrix(0.47626147,0,0,0.47525241,1.7050197,109.01917)">
      <g
         id="g996"
         transform="translate(132.80959,-69.377507)">
        <path
           inkscape:connector-curvature="0"
           id="path833-6"
           d="m -133.49164,432.52972 c 0,-0.004 -0.0496,-0.27768 -0.10981,-0.60774 -0.33175,-1.81221 -0.48564,-2.9685 -0.56486,-4.24423 -0.0252,-0.40612 -0.0252,-1.47995 -2e-5,-1.83306 0.12535,-1.75564 0.54636,-3.02661 1.32026,-3.98561 0.13249,-0.16413 0.43772,-0.4687 0.60719,-0.60577 0.34731,-0.28094 0.80836,-0.54562 1.24593,-0.71522 0.18583,-0.072 0.21035,-0.0774 0.30784,-0.0686 0.42527,0.0383 0.89675,0.39091 1.21261,0.90665 0.88189,1.44008 1.21026,4.47914 1.02704,9.50529 -0.0105,0.29599 -0.021,0.5391 -0.0216,0.54024 -0.002,10e-4 -0.055,-0.006 -0.11989,-0.0147 -0.20619,-0.0305 -1.06242,-0.024 -1.30218,0.008 -0.85632,0.12119 -1.8315,0.41331 -3.18191,0.95351 -0.40963,0.16391 -0.42065,0.16812 -0.42065,0.15991 z"
           style="opacity:1;fill:url(#linearGradient857-8);fill-opacity:1;fill-rule:nonzero;stroke:none;stroke-width:0.11394767;stroke-linecap:round;stroke-linejoin:round;stroke-miterlimit:4;stroke-dasharray:none;stroke-dashoffset:0;stroke-opacity:1;paint-order:normal" />
        <path
           inkscape:connector-curvature="0"
           id="path837-0"
           d="m -130.54513,460.14086 c 0.12179,-3.12078 0.34788,-5.89727 1.16004,-14.25026 1.16974,-12.0307 1.35608,-15.05625 1.19317,-19.37309 -0.12304,-3.26109 -0.55965,-5.01016 -1.46057,-5.85129 l -0.40849,-0.38138 1.18007,-0.27689 c 7.19111,-1.68739 20.40727,-1.98319 30.561486,-0.68403 2.156946,0.27596 6.078615,1.01876 6.24659,1.18316 0.170075,0.16644 0.909501,2.60769 1.247109,4.11716 0.183303,0.81931 0.422898,2.21615 0.532565,3.10408 0.594862,4.81771 0.412819,7.78771 -1.144854,18.67481 -0.5632,3.93648 -0.606579,4.14165 -0.862237,4.07821 -0.148028,-0.0366 -0.693233,-0.20073 -1.211456,-0.36463 -1.308609,-0.41359 -4.600961,-0.45049 -6.158256,-0.069 -0.573757,0.14055 -1.043227,0.27381 -1.043227,0.29614 0,0.0223 0.0907,0.38926 0.20199,0.81539 0.25916,0.99451 0.25794,2.81484 -0.004,4.1887 -0.31403,1.65447 -1.1828,4.35039 -2.13916,6.63808 l -0.20031,0.47924 -1.11716,-0.23983 c -3.79907,-0.81557 -9.83563,-0.85035 -20.76973,-0.11952 -2.14697,0.1435 -4.35244,0.3002 -4.901,0.34826 l -0.9975,0.0873 z"
           style="opacity:1;fill:url(#linearGradient855-4);fill-opacity:1;fill-rule:nonzero;stroke:none;stroke-width:0.9115814;stroke-linecap:round;stroke-linejoin:round;stroke-miterlimit:4;stroke-dasharray:none;stroke-dashoffset:0;stroke-opacity:1;paint-order:normal" />
        <path
           sodipodi:nodetypes="cccccc"
           inkscape:connector-curvature="0"
           id="path821-1"
           d="m -130.78613,420.33753 c 5.64568,0.41548 8.4e-4,28.24558 0,42.36793 10.94462,-0.77502 22.2608,-1.73024 28.0409,0 l 10.859373,-11.82738 c 1.168203,-9.99802 4.016681,-19.73406 2.1e-5,-30.54055 -9.822754,-2.64022 -30.386544,-2.75414 -38.900294,0 z"
           style="fill:none;stroke:#000000;stroke-width:0.55018717px;stroke-linecap:butt;stroke-linejoin:miter;stroke-opacity:1" />
        <path
           sodipodi:nodetypes="ccc"
           inkscape:connector-curvature="0"
           id="path825-77"
           d="m -130.78613,420.33753 c -4.88024,1.61276 -3.49027,8.61733 -2.79094,12.36381 2.78204,-1.14977 3.89401,-1.32787 5.17778,-1.15228"
           style="fill:none;stroke:#000000;stroke-width:0.55018717px;stroke-linecap:butt;stroke-linejoin:miter;stroke-opacity:1" />
        <path
           inkscape:connector-curvature="0"
           id="path835-4"
           d="m -102.33182,462.04637 c 0,-0.0126 0.0815,-0.22699 0.1812,-0.47517 1.31424,-3.27391 1.96346,-5.58438 2.1416,-7.62177 0.04724,-0.54202 0.03402,-1.5971 -0.0254,-2.01865 -0.0521,-0.36839 -0.14362,-0.79271 -0.23918,-1.10768 -0.0439,-0.14435 -0.0771,-0.26473 -0.0741,-0.26771 0.002,-0.004 0.15769,-0.0492 0.34372,-0.10248 0.653257,-0.18726 1.374941,-0.33203 2.098199,-0.4207 0.498907,-0.0612 1.961947,-0.061 2.439017,2.5e-4 0.732161,0.0941 1.289292,0.20642 1.92745,0.38868 0.569015,0.16244 1.415798,0.46775 1.415798,0.5104 0,0.0168 -9.810324,10.72479 -10.140024,11.06779 -0.0376,0.0391 -0.0682,0.0602 -0.0682,0.0469 z"
           style="opacity:1;fill:url(#linearGradient853-4);fill-opacity:1;fill-rule:nonzero;stroke:none;stroke-width:0.16114633;stroke-linecap:round;stroke-linejoin:round;stroke-miterlimit:4;stroke-dasharray:none;stroke-dashoffset:0;stroke-opacity:1;paint-order:normal" />
        <path
           sodipodi:nodetypes="cccc"
           inkscape:connector-curvature="0"
           id="path823-3"
           d="m -102.74523,462.70546 c 1.74308,-4.19739 3.491887,-8.97023 2.22451,-12.22462 3.320472,-1.07411 6.101654,-0.67674 8.634863,0.39724 z"
           style="fill:none;stroke:#000000;stroke-width:0.55018717px;stroke-linecap:butt;stroke-linejoin:round;stroke-opacity:1" />
      </g>
    </g>
  </g>
</svg>
