<?xml version="1.0" encoding="UTF-8" standalone="no"?>
<svg
   xmlns:dc="http://purl.org/dc/elements/1.1/"
   xmlns:cc="http://creativecommons.org/ns#"
   xmlns:rdf="http://www.w3.org/1999/02/22-rdf-syntax-ns#"
   xmlns:svg="http://www.w3.org/2000/svg"
   xmlns="http://www.w3.org/2000/svg"
   xmlns:xlink="http://www.w3.org/1999/xlink"
   id="svg6833"
   version="1.1"
   viewBox="0 0 23.205 23.205"
   height="23.205mm"
   width="23.205mm">
  <defs
     id="defs6827">
    <linearGradient
       id="linearGradient1058">
      <stop
         id="stop1054"
         offset="0"
         style="stop-color:#00bfbc;stop-opacity:1" />
      <stop
         id="stop1056"
         offset="1"
         style="stop-color:#00f4ff;stop-opacity:1" />
    </linearGradient>
    <linearGradient
       id="linearGradient983">
      <stop
         style="stop-color:#bfa700;stop-opacity:1"
         offset="0"
         id="stop979" />
      <stop
         style="stop-color:#ffde00;stop-opacity:1"
         offset="1"
         id="stop981" />
    </linearGradient>
    <linearGradient
       gradientTransform="matrix(0.35500957,0,0,0.35576333,-43.973204,308.43702)"
       gradientUnits="userSpaceOnUse"
       y2="72.921043"
       x2="-226.99358"
       y1="25.0436"
       x1="-226.22386"
       id="linearGradient855"
       xlink:href="#linearGradient983" />
    <linearGradient
       gradientTransform="matrix(0.35500957,0,0,0.35576333,-43.973204,308.43702)"
       gradientUnits="userSpaceOnUse"
       y2="54.953579"
       x2="-305.69336"
       y1="42.579205"
       x1="-306.45346"
       id="linearGradient857"
       xlink:href="#linearGradient983" />
    <linearGradient
       gradientTransform="matrix(0.35500958,0,0,0.35576333,-115.48263,308.43701)"
       gradientUnits="userSpaceOnUse"
       y2="72.921043"
       x2="-226.99358"
       y1="25.0436"
       x1="-226.22386"
       id="linearGradient855-2"
       xlink:href="#linearGradient1058" />
    <linearGradient
       gradientTransform="matrix(0.26650739,0,0,0.26636673,113.3657,410.51593)"
       gradientUnits="userSpaceOnUse"
       y2="160.97697"
       x2="-182.21553"
       y1="168.04803"
       x1="-177.3351"
       id="linearGradient853-34"
       xlink:href="#linearGradient1058" />
    <linearGradient
       gradientTransform="matrix(0.26650739,0,0,0.26636673,113.3657,410.51593)"
       gradientUnits="userSpaceOnUse"
       y2="72.921043"
       x2="-226.99358"
       y1="25.0436"
       x1="-226.22386"
       id="linearGradient855-2-9"
       xlink:href="#linearGradient1058" />
    <linearGradient
       gradientTransform="matrix(0.26650739,0,0,0.26636673,113.3657,410.51593)"
       gradientUnits="userSpaceOnUse"
       y2="54.953579"
       x2="-305.69336"
       y1="42.579205"
       x1="-306.45346"
       id="linearGradient857-5"
       xlink:href="#linearGradient1058" />
  </defs>
  <metadata
     id="metadata6830">
    <rdf:RDF>
      <cc:Work
         rdf:about="">
        <dc:format>image/svg+xml</dc:format>
        <dc:type
           rdf:resource="http://purl.org/dc/dcmitype/StillImage" />
        <dc:title></dc:title>
      </cc:Work>
    </rdf:RDF>
  </metadata>
  <g
     transform="translate(0,-273.795)"
     id="layer1">
    <g
       transform="matrix(0.47626147,0,0,0.47525241,1.7050197,109.01917)"
       id="g18">
      <g
         transform="translate(-29.906042,-69.377487)"
         id="g1020">
        <path
           style="opacity:1;fill:url(#linearGradient857-5);fill-opacity:1;fill-rule:nonzero;stroke:none;stroke-width:0.11394767;stroke-linecap:round;stroke-linejoin:round;stroke-miterlimit:4;stroke-dasharray:none;stroke-dashoffset:0;stroke-opacity:1;paint-order:normal"
           d="m 29.223959,432.52968 c 0,-0.004 -0.0496,-0.27768 -0.10981,-0.60776 -0.33175,-1.8122 -0.48564,-2.96849 -0.56486,-4.24423 -0.0252,-0.40608 -0.0252,-1.47993 -2e-5,-1.83303 0.12535,-1.75563 0.54636,-3.0266 1.32027,-3.98563 0.13249,-0.16412 0.43773,-0.46869 0.60718,-0.60578 0.34729,-0.28094 0.80836,-0.5456 1.24593,-0.71518 0.18582,-0.072 0.21035,-0.0774 0.30784,-0.0686 0.42527,0.0383 0.89678,0.39091 1.21261,0.90665 0.88189,1.44008 1.21026,4.47914 1.02704,9.50531 -0.0105,0.29597 -0.021,0.53908 -0.0216,0.54022 -0.002,10e-4 -0.055,-0.006 -0.11968,-0.0147 -0.20619,-0.0305 -1.0624,-0.024 -1.30216,0.008 -0.85634,0.1212 -1.83152,0.41332 -3.18193,0.95352 -0.40961,0.16391 -0.42065,0.16812 -0.42065,0.15991 z"
           id="path833-01" />
        <path
           style="opacity:1;fill:url(#linearGradient855-2-9);fill-opacity:1;fill-rule:nonzero;stroke:none;stroke-width:0.9115814;stroke-linecap:round;stroke-linejoin:round;stroke-miterlimit:4;stroke-dasharray:none;stroke-dashoffset:0;stroke-opacity:1;paint-order:normal"
           d="m 32.170499,460.1408 c 0.12178,-3.12074 0.34787,-5.89725 1.16003,-14.25024 1.16974,-12.0307 1.35608,-15.05623 1.19317,-19.3731 -0.12304,-3.2611 -0.55965,-5.01013 -1.46056,-5.85129 l -0.4085,-0.38137 1.18005,-0.27689 c 7.19113,-1.68737 20.4073,-1.9832 30.56151,-0.68403 2.15694,0.27598 6.07862,1.01876 6.2466,1.18316 0.16999,0.16643 0.90949,2.60769 1.24711,4.11716 0.18326,0.81931 0.42289,2.21615 0.53254,3.10407 0.59488,4.81772 0.41282,7.78772 -1.14483,18.67484 -0.56321,3.93647 -0.60659,4.14165 -0.86226,4.07819 -0.14808,-0.0366 -0.69322,-0.20074 -1.21146,-0.36461 -1.30859,-0.41359 -4.60095,-0.45052 -6.15824,-0.069 -0.57378,0.14055 -1.04321,0.27381 -1.04321,0.29616 0,0.0223 0.0909,0.38924 0.20199,0.81535 0.25919,0.99455 0.25797,2.81484 -0.002,4.18872 -0.31403,1.65447 -1.1828,4.35039 -2.13916,6.63808 l -0.20031,0.47924 -1.11718,-0.23981 c -3.79907,-0.81559 -9.83563,-0.85035 -20.76973,-0.11952 -2.14697,0.1435 -4.35242,0.30018 -4.901,0.34824 l -0.99742,0.0873 z"
           id="path837-2" />
        <path
           style="fill:none;stroke:#000000;stroke-width:0.55018717px;stroke-linecap:butt;stroke-linejoin:miter;stroke-opacity:1"
           d="m 31.929499,420.33751 c 5.64568,0.41548 5.5e-4,28.24556 0,42.3679 10.94461,-0.77499 22.26077,-1.73026 28.04087,0 l 10.8594,-11.82737 c 1.1682,-9.99804 4.01667,-19.73407 2e-5,-30.54053 -9.82276,-2.64024 -30.38655,-2.75416 -38.90029,0 z"
           id="path821-04" />
        <path
           style="fill:none;stroke:#000000;stroke-width:0.55018717px;stroke-linecap:butt;stroke-linejoin:miter;stroke-opacity:1"
           d="m 31.929499,420.33751 c -4.88026,1.61276 -3.49027,8.61729 -2.79095,12.36378 2.78204,-1.14976 3.89401,-1.32786 5.17778,-1.15225"
           id="path825-7" />
        <path
           style="opacity:1;fill:url(#linearGradient853-34);fill-opacity:1;fill-rule:nonzero;stroke:none;stroke-width:0.16114633;stroke-linecap:round;stroke-linejoin:round;stroke-miterlimit:4;stroke-dasharray:none;stroke-dashoffset:0;stroke-opacity:1;paint-order:normal"
           d="m 60.383799,462.04633 c 0,-0.0126 0.0815,-0.22699 0.18121,-0.4752 1.31423,-3.27388 1.96343,-5.58434 2.14159,-7.62174 0.0472,-0.54203 0.034,-1.59711 -0.0254,-2.01865 -0.052,-0.36839 -0.14362,-0.79272 -0.23919,-1.10771 -0.0437,-0.14434 -0.0771,-0.2647 -0.0741,-0.26771 0.002,-0.002 0.15768,-0.0492 0.34372,-0.10247 0.65325,-0.18727 1.37494,-0.33203 2.09819,-0.4207 0.49891,-0.0612 1.96195,-0.061 2.43903,2.7e-4 0.73214,0.0941 1.28926,0.20642 1.92742,0.38866 0.56903,0.16244 1.41582,0.46775 1.41582,0.5104 0,0.0168 -9.81033,10.72479 -10.14004,11.06778 -0.0374,0.0391 -0.0683,0.0602 -0.0683,0.0469 z"
           id="path835-80" />
        <path
           style="fill:none;stroke:#000000;stroke-width:0.55018717px;stroke-linecap:butt;stroke-linejoin:round;stroke-opacity:1"
           d="m 59.970369,462.70541 c 1.7431,-4.19739 3.49191,-8.97022 2.22454,-12.22462 3.32044,-1.0741 6.10164,-0.67673 8.63486,0.39725 z"
           id="path823-63" />
      </g>
    </g>
  </g>
</svg>
