<?xml version="1.0" encoding="UTF-8" standalone="no"?>
<svg
   xmlns:dc="http://purl.org/dc/elements/1.1/"
   xmlns:cc="http://creativecommons.org/ns#"
   xmlns:rdf="http://www.w3.org/1999/02/22-rdf-syntax-ns#"
   xmlns:svg="http://www.w3.org/2000/svg"
   xmlns="http://www.w3.org/2000/svg"
   xmlns:xlink="http://www.w3.org/1999/xlink"
   id="svg6833"
   version="1.1"
   viewBox="0 0 23.205 23.205"
   height="23.205mm"
   width="23.205mm">
  <defs
     id="defs6827">
    <linearGradient
       id="linearGradient1058">
      <stop
         id="stop1054"
         offset="0"
         style="stop-color:#00bfbc;stop-opacity:1" />
      <stop
         id="stop1056"
         offset="1"
         style="stop-color:#00f4ff;stop-opacity:1" />
    </linearGradient>
    <linearGradient
       id="linearGradient983">
      <stop
         style="stop-color:#bfa700;stop-opacity:1"
         offset="0"
         id="stop979" />
      <stop
         style="stop-color:#ffde00;stop-opacity:1"
         offset="1"
         id="stop981" />
    </linearGradient>
    <linearGradient
       gradientTransform="matrix(0.35500957,0,0,0.35576333,-43.973204,308.43702)"
       gradientUnits="userSpaceOnUse"
       y2="72.921043"
       x2="-226.99358"
       y1="25.0436"
       x1="-226.22386"
       id="linearGradient855"
       xlink:href="#linearGradient983" />
    <linearGradient
       gradientTransform="matrix(0.35500957,0,0,0.35576333,-43.973204,308.43702)"
       gradientUnits="userSpaceOnUse"
       y2="54.953579"
       x2="-305.69336"
       y1="42.579205"
       x1="-306.45346"
       id="linearGradient857"
       xlink:href="#linearGradient983" />
    <linearGradient
       gradientTransform="matrix(0.35500958,0,0,0.35576333,-115.48263,308.43701)"
       gradientUnits="userSpaceOnUse"
       y2="72.921043"
       x2="-226.99358"
       y1="25.0436"
       x1="-226.22386"
       id="linearGradient855-2"
       xlink:href="#linearGradient1058" />
    <linearGradient
       gradientTransform="matrix(0.26650739,0,0,0.26636673,59.683179,410.51598)"
       gradientUnits="userSpaceOnUse"
       y2="160.97697"
       x2="-182.21553"
       y1="168.04803"
       x1="-177.3351"
       id="linearGradient853-8"
       xlink:href="#linearGradient6974" />
    <linearGradient
       id="linearGradient6974">
      <stop
         id="stop6970"
         offset="0"
         style="stop-color:#00bf1f;stop-opacity:1" />
      <stop
         id="stop6972"
         offset="1"
         style="stop-color:#00ff23;stop-opacity:1" />
    </linearGradient>
    <linearGradient
       gradientTransform="matrix(0.26650739,0,0,0.26636673,59.683179,410.51598)"
       gradientUnits="userSpaceOnUse"
       y2="72.921043"
       x2="-226.99358"
       y1="25.0436"
       x1="-226.22386"
       id="linearGradient855-9"
       xlink:href="#linearGradient6974" />
    <linearGradient
       gradientTransform="matrix(0.26650739,0,0,0.26636673,59.683179,410.51598)"
       gradientUnits="userSpaceOnUse"
       y2="54.953579"
       x2="-305.69336"
       y1="42.579205"
       x1="-306.45346"
       id="linearGradient857-50"
       xlink:href="#linearGradient6974" />
  </defs>
  <metadata
     id="metadata6830">
    <rdf:RDF>
      <cc:Work
         rdf:about="">
        <dc:format>image/svg+xml</dc:format>
        <dc:type
           rdf:resource="http://purl.org/dc/dcmitype/StillImage" />
        <dc:title></dc:title>
      </cc:Work>
    </rdf:RDF>
  </metadata>
  <g
     transform="translate(0,-273.795)"
     id="layer1">
    <g
       transform="matrix(0.47626147,0,0,0.47525241,1.7050197,109.01917)"
       id="g18">
      <g
         transform="translate(23.776478,-69.377487)"
         id="g1012">
        <path
           style="opacity:1;fill:url(#linearGradient857-50);fill-opacity:1;fill-rule:nonzero;stroke:none;stroke-width:0.11394767;stroke-linecap:round;stroke-linejoin:round;stroke-miterlimit:4;stroke-dasharray:none;stroke-dashoffset:0;stroke-opacity:1;paint-order:normal"
           d="m -24.458581,432.52968 c 0,-0.004 -0.0496,-0.27768 -0.10982,-0.60774 -0.33173,-1.81222 -0.48564,-2.96851 -0.56486,-4.24423 -0.0252,-0.4061 -0.0252,-1.47993 -2e-5,-1.83305 0.12535,-1.75563 0.54636,-3.0266 1.32026,-3.9856 0.13249,-0.16413 0.43775,-0.4687 0.60719,-0.60579 0.34729,-0.28094 0.80836,-0.5456 1.24594,-0.7152 0.18582,-0.072 0.21036,-0.0774 0.30783,-0.0686 0.42527,0.0383 0.89678,0.39091 1.21261,0.90665 0.88189,1.4401 1.21026,4.47916 1.02706,9.50531 -0.0105,0.29599 -0.021,0.53908 -0.0216,0.54022 -0.002,10e-4 -0.055,-0.006 -0.11989,-0.0147 -0.20619,-0.0305 -1.0624,-0.024 -1.30216,0.008 -0.85634,0.1212 -1.83152,0.4133 -3.18193,0.9535 -0.40961,0.16391 -0.42065,0.16812 -0.42065,0.15991 z"
           id="path833-8" />
        <path
           style="opacity:1;fill:url(#linearGradient855-9);fill-opacity:1;fill-rule:nonzero;stroke:none;stroke-width:0.9115814;stroke-linecap:round;stroke-linejoin:round;stroke-miterlimit:4;stroke-dasharray:none;stroke-dashoffset:0;stroke-opacity:1;paint-order:normal"
           d="m -21.512061,460.14082 c 0.12179,-3.12076 0.3479,-5.89727 1.16006,-14.25024 1.16974,-12.0307 1.35606,-15.05625 1.19315,-19.37312 -0.12304,-3.26108 -0.55965,-5.01013 -1.46057,-5.85129 l -0.40847,-0.38137 1.18003,-0.27687 c 7.19115,-1.68739 20.40729997,-1.98322 30.56153,-0.68405 2.15696,0.27598 6.07864,1.01878 6.24661,1.18318 0.17007,0.16644 0.9095,2.60767 1.24711,4.11714 0.1833,0.81931 0.4229,2.21615 0.53256,3.10409 0.59489,4.8177 0.4128,7.7877 -1.14485,18.67482 -0.5632,3.93647 -0.60658,4.14165 -0.86224,4.07821 -0.14803,-0.0366 -0.69323,-0.20074 -1.21145,-0.36463 -1.30861,-0.41359 -4.60099,-0.45052 -6.1583,-0.069 -0.57376,0.14055 -1.04321,0.27381 -1.04321,0.29616 0,0.0223 0.0907,0.38926 0.20199,0.81537 0.25919,0.99453 0.25797,2.81484 -0.004,4.18872 -0.314,1.65447 -1.18277,4.35037 -2.13913,6.63806 l -0.20032,0.47924 -1.11715,-0.23981 c -3.79907,-0.81559 -9.83563,-0.85035 -20.76973,-0.11952 -2.14697,0.1435 -4.35242,0.30018 -4.901,0.34824 l -0.9975,0.0875 z"
           id="path837-8" />
        <path
           style="fill:none;stroke:#000000;stroke-width:0.55018717px;stroke-linecap:butt;stroke-linejoin:miter;stroke-opacity:1"
           d="m -21.753061,420.33751 c 5.64571,0.41548 10e-4,28.24556 0,42.3679 10.94462,-0.77499 22.26077997,-1.73023 28.04089,0 l 10.85943,-11.82735 c 1.1682,-9.99804 4.01668,-19.73406 2e-5,-30.54055 -9.82278,-2.64022 -30.38659,-2.75416 -38.90034,0 z"
           id="path821-6" />
        <path
           style="fill:none;stroke:#000000;stroke-width:0.55018717px;stroke-linecap:butt;stroke-linejoin:miter;stroke-opacity:1"
           d="m -21.753061,420.33751 c -4.88026,1.61276 -3.49024,8.61731 -2.79094,12.36378 2.78204,-1.14976 3.89401,-1.32784 5.1778,-1.15225"
           id="path825-8" />
        <path
           style="opacity:1;fill:url(#linearGradient853-8);fill-opacity:1;fill-rule:nonzero;stroke:none;stroke-width:0.16114633;stroke-linecap:round;stroke-linejoin:round;stroke-miterlimit:4;stroke-dasharray:none;stroke-dashoffset:0;stroke-opacity:1;paint-order:normal"
           d="m 6.701269,462.04635 c 0,-0.0126 0.0815,-0.22701 0.18121,-0.4752 1.31425,-3.2739 1.96346,-5.58436 2.14161,-7.62176 0.0474,-0.542 0.034,-1.59711 -0.0254,-2.01865 -0.0521,-0.36837 -0.14361,-0.7927 -0.23921,-1.10769 -0.0439,-0.14434 -0.0771,-0.26472 -0.0741,-0.26771 0.004,-0.004 0.15768,-0.0492 0.34372,-0.10247 0.65327,-0.18727 1.37495,-0.33203 2.09824,-0.42068 0.49888,-0.061 1.96194,-0.061 2.43901,2.5e-4 0.73216,0.0941 1.2893,0.20642 1.92745,0.38866 0.56904,0.16244 1.4158,0.46775 1.4158,0.51042 0,0.0168 -9.81035,10.72479 -10.14008,11.06776 -0.0376,0.0391 -0.0682,0.0602 -0.0682,0.0469 z"
           id="path835-1" />
        <path
           style="fill:none;stroke:#000000;stroke-width:0.55018717px;stroke-linecap:butt;stroke-linejoin:round;stroke-opacity:1"
           d="m 6.287829,462.70541 c 1.74311,-4.19739 3.4919,-8.9702 2.22455,-12.2246 3.32046,-1.0741 6.10167,-0.67675 8.63488,0.39725 z"
           id="path823-0" />
      </g>
    </g>
  </g>
</svg>
