<?xml version="1.0" encoding="UTF-8" standalone="no"?>
<svg
   xmlns:dc="http://purl.org/dc/elements/1.1/"
   xmlns:cc="http://creativecommons.org/ns#"
   xmlns:rdf="http://www.w3.org/1999/02/22-rdf-syntax-ns#"
   xmlns:svg="http://www.w3.org/2000/svg"
   xmlns="http://www.w3.org/2000/svg"
   xmlns:xlink="http://www.w3.org/1999/xlink"
   id="svg6833"
   version="1.1"
   viewBox="0 0 23.205 23.205"
   height="23.205mm"
   width="23.205mm">
  <defs
     id="defs6827">
    <linearGradient
       id="linearGradient1058">
      <stop
         id="stop1054"
         offset="0"
         style="stop-color:#00bfbc;stop-opacity:1" />
      <stop
         id="stop1056"
         offset="1"
         style="stop-color:#00f4ff;stop-opacity:1" />
    </linearGradient>
    <linearGradient
       id="linearGradient983">
      <stop
         style="stop-color:#bfa700;stop-opacity:1"
         offset="0"
         id="stop979" />
      <stop
         style="stop-color:#ffde00;stop-opacity:1"
         offset="1"
         id="stop981" />
    </linearGradient>
    <linearGradient
       gradientTransform="matrix(0.35500957,0,0,0.35576333,-43.973204,308.43702)"
       gradientUnits="userSpaceOnUse"
       y2="72.921043"
       x2="-226.99358"
       y1="25.0436"
       x1="-226.22386"
       id="linearGradient855"
       xlink:href="#linearGradient983" />
    <linearGradient
       gradientTransform="matrix(0.35500957,0,0,0.35576333,-43.973204,308.43702)"
       gradientUnits="userSpaceOnUse"
       y2="54.953579"
       x2="-305.69336"
       y1="42.579205"
       x1="-306.45346"
       id="linearGradient857"
       xlink:href="#linearGradient983" />
    <linearGradient
       gradientTransform="matrix(0.35500958,0,0,0.35576333,-115.48263,308.43701)"
       gradientUnits="userSpaceOnUse"
       y2="72.921043"
       x2="-226.99358"
       y1="25.0436"
       x1="-226.22386"
       id="linearGradient855-2"
       xlink:href="#linearGradient1058" />
    <linearGradient
       gradientTransform="matrix(0.26650739,0,0,0.26636673,6.000669,410.51595)"
       gradientUnits="userSpaceOnUse"
       y2="160.97697"
       x2="-182.21553"
       y1="168.04803"
       x1="-177.3351"
       id="linearGradient853-34-0"
       xlink:href="#linearGradient6980" />
    <linearGradient
       id="linearGradient6980">
      <stop
         style="stop-color:#bf5d00;stop-opacity:1"
         offset="0"
         id="stop6976" />
      <stop
         style="stop-color:#ff9600;stop-opacity:1"
         offset="1"
         id="stop6978" />
    </linearGradient>
    <linearGradient
       gradientTransform="matrix(0.26650739,0,0,0.26636673,6.000669,410.51595)"
       gradientUnits="userSpaceOnUse"
       y2="72.921043"
       x2="-226.99358"
       y1="25.0436"
       x1="-226.22386"
       id="linearGradient855-2-3"
       xlink:href="#linearGradient6980" />
    <linearGradient
       gradientTransform="matrix(0.26650739,0,0,0.26636673,6.000669,410.51595)"
       gradientUnits="userSpaceOnUse"
       y2="54.953579"
       x2="-305.69336"
       y1="42.579205"
       x1="-306.45346"
       id="linearGradient857-5-1"
       xlink:href="#linearGradient6980" />
  </defs>
  <metadata
     id="metadata6830">
    <rdf:RDF>
      <cc:Work
         rdf:about="">
        <dc:format>image/svg+xml</dc:format>
        <dc:type
           rdf:resource="http://purl.org/dc/dcmitype/StillImage" />
        <dc:title></dc:title>
      </cc:Work>
    </rdf:RDF>
  </metadata>
  <g
     transform="translate(0,-273.795)"
     id="layer1">
    <g
       transform="matrix(0.47626147,0,0,0.47525241,1.7050197,109.01917)"
       id="g18">
      <g
         transform="translate(77.458986,-69.377467)"
         id="g1004">
        <path
           style="opacity:1;fill:url(#linearGradient857-5-1);fill-opacity:1;fill-rule:nonzero;stroke:none;stroke-width:0.11394767;stroke-linecap:round;stroke-linejoin:round;stroke-miterlimit:4;stroke-dasharray:none;stroke-dashoffset:0;stroke-opacity:1;paint-order:normal"
           d="m -78.141031,432.52968 c 0,-0.004 -0.04956,-0.27768 -0.109814,-0.60776 -0.331753,-1.8122 -0.485639,-2.96849 -0.564859,-4.24423 -0.02517,-0.40608 -0.02517,-1.47993 -2.2e-5,-1.83303 0.125352,-1.75563 0.546337,-3.0266 1.320262,-3.98563 0.132492,-0.16412 0.437723,-0.46869 0.607169,-0.60578 0.347308,-0.28094 0.808381,-0.5456 1.245953,-0.71518 0.185824,-0.072 0.210345,-0.0774 0.307815,-0.0686 0.425268,0.0383 0.896773,0.39091 1.212632,0.90665 0.88189,1.44008 1.21026,4.47914 1.027042,9.50531 -0.0105,0.29597 -0.021,0.53908 -0.02161,0.54022 -0.0017,10e-4 -0.055,-0.006 -0.119892,-0.0147 -0.206189,-0.0305 -1.06238,-0.024 -1.302163,0.008 -0.856318,0.1212 -1.831495,0.41332 -3.181912,0.95352 -0.409607,0.16391 -0.420651,0.16812 -0.420651,0.15991 z"
           id="path833-01-2" />
        <path
           style="opacity:1;fill:url(#linearGradient855-2-3);fill-opacity:1;fill-rule:nonzero;stroke:none;stroke-width:0.9115814;stroke-linecap:round;stroke-linejoin:round;stroke-miterlimit:4;stroke-dasharray:none;stroke-dashoffset:0;stroke-opacity:1;paint-order:normal"
           d="m -75.194541,460.1408 c 0.12178,-3.12074 0.347897,-5.89725 1.160055,-14.25024 1.169733,-12.0307 1.356062,-15.05623 1.193166,-19.3731 -0.123042,-3.2611 -0.559648,-5.01013 -1.460559,-5.85129 l -0.408496,-0.38137 1.180044,-0.27689 c 7.191132,-1.68737 20.407297,-1.9832 30.561491,-0.68403 2.156943,0.27598 6.078637,1.01876 6.246611,1.18316 0.170074,0.16643 0.909478,2.60769 1.247109,4.11716 0.183301,0.81931 0.422895,2.21615 0.532565,3.10407 0.594863,4.81772 0.412818,7.78772 -1.144856,18.67484 -0.563197,3.93647 -0.60658,4.14165 -0.862257,4.07819 -0.14803,-0.0366 -0.693233,-0.20074 -1.211454,-0.36461 -1.308591,-0.41359 -4.600939,-0.45052 -6.158235,-0.069 -0.573781,0.14055 -1.04323,0.27381 -1.04323,0.29616 0,0.0223 0.0907,0.38924 0.201989,0.81535 0.259183,0.99455 0.257966,2.81484 -0.0022,4.18872 -0.314009,1.65447 -1.182794,4.35039 -2.139143,6.63808 l -0.200306,0.47924 -1.117184,-0.23981 c -3.799065,-0.81559 -9.835625,-0.85035 -20.769722,-0.11952 -2.146971,0.1435 -4.352423,0.30018 -4.900988,0.34822 l -0.997432,0.0873 z"
           id="path837-2-1" />
        <path
           style="fill:none;stroke:#000000;stroke-width:0.55018717px;stroke-linecap:butt;stroke-linejoin:miter;stroke-opacity:1"
           d="m -75.435524,420.33751 c 5.64568,0.41548 5.55e-4,28.24556 0,42.3679 10.944597,-0.77499 22.260775,-1.73026 28.04088,0 l 10.859394,-11.82737 c 1.1682,-9.99804 4.016675,-19.73407 1.7e-5,-30.54053 -9.822753,-2.64024 -30.386541,-2.75416 -38.900291,0 z"
           id="path821-04-8" />
        <path
           style="fill:none;stroke:#000000;stroke-width:0.55018717px;stroke-linecap:butt;stroke-linejoin:miter;stroke-opacity:1"
           d="m -75.435524,420.33751 c -4.880238,1.61276 -3.490266,8.61729 -2.790944,12.36378 2.782044,-1.14976 3.893995,-1.32786 5.177786,-1.15225"
           id="path825-7-1" />
        <path
           style="opacity:1;fill:url(#linearGradient853-34-0);fill-opacity:1;fill-rule:nonzero;stroke:none;stroke-width:0.16114633;stroke-linecap:round;stroke-linejoin:round;stroke-miterlimit:4;stroke-dasharray:none;stroke-dashoffset:0;stroke-opacity:1;paint-order:normal"
           d="m -46.981215,462.04633 c 0,-0.0126 0.08146,-0.22699 0.181201,-0.4752 1.314257,-3.27388 1.963481,-5.58434 2.141598,-7.62174 0.04722,-0.54203 0.034,-1.59711 -0.02539,-2.01865 -0.05205,-0.36839 -0.143619,-0.79272 -0.2392,-1.10771 -0.04389,-0.14434 -0.07706,-0.2647 -0.07411,-0.26771 0.0044,-0.002 0.157685,-0.0492 0.343736,-0.10247 0.653234,-0.18727 1.374917,-0.33203 2.098199,-0.4207 0.498905,-0.0612 1.961947,-0.061 2.439014,2.7e-4 0.732143,0.0941 1.289274,0.20642 1.927431,0.38866 0.569014,0.16244 1.415816,0.46775 1.415816,0.5104 0,0.0168 -9.810325,10.72479 -10.140039,11.06778 -0.03761,0.0391 -0.06824,0.0602 -0.06824,0.0469 z"
           id="path835-80-2" />
        <path
           style="fill:none;stroke:#000000;stroke-width:0.55018717px;stroke-linecap:butt;stroke-linejoin:round;stroke-opacity:1"
           d="m -47.394644,462.70541 c 1.743097,-4.19739 3.491905,-8.97022 2.224535,-12.22462 3.320443,-1.0741 6.101648,-0.67673 8.634859,0.39725 z"
           id="path823-63-7" />
      </g>
    </g>
  </g>
</svg>
